<svg width="46" height="46" fill="none" xmlns="http://www.w3.org/2000/svg"><path fill-rule="evenodd" clip-rule="evenodd" d="M42.312 20.998l2.884.469c.44.052.78.416.804.863v1.31a.9.9 0 01-.785.885l-2.884.47a.898.898 0 00-.73.76c-.048.313-.105.617-.163.928l-.025.134a.89.89 0 00.431.963l2.554 1.431c.4.207.584.682.43 1.108l-.441 1.228a.883.883 0 01-1.04.559l-2.863-.559a.894.894 0 00-.95.46c-.166.324-.343.637-.53.938a.9.9 0 00.077 1.063l1.912 2.227a.9.9 0 01.033 1.185l-.828 1.005a.879.879 0 01-1.162.169l-2.5-1.526a.878.878 0 00-1.038.1c-.266.236-.542.47-.819.694a.908.908 0 00-.276 1.018l1.04 2.763a.89.89 0 01-.365 1.13l-1.128.66a.88.88 0 01-1.154-.243l-1.88-2.338c-.276-.346-.63-.346-.918-.235l-.079.03c-.266.104-.56.219-.982.362a.893.893 0 00-.607.86l.044 2.954a.9.9 0 01-.73.94l-1.282.224a.892.892 0 01-1.006-.627l-.951-2.791a.893.893 0 00-.861-.604H22.46a.885.885 0 00-.862.604l-.95 2.791a.892.892 0 01-1.007.627l-1.282-.224a.9.9 0 01-.73-.94l.045-2.953a.893.893 0 00-.607-.861 15.32 15.32 0 01-1.095-.403c-.299-.123-.675 0-.907.29l-1.857 2.305a.88.88 0 01-1.149.247l-1.128-.66a.898.898 0 01-.364-1.13l1.039-2.764a.899.899 0 00-.277-1.017 24.528 24.528 0 01-.818-.694.878.878 0 00-1.038-.1l-2.51 1.521a.866.866 0 01-1.16-.169l-.829-1.005a.9.9 0 01.033-1.185l1.912-2.229c.25-.3.281-.729.078-1.063a20.519 20.519 0 01-.531-.939.882.882 0 00-.95-.459l-2.863.558a.876.876 0 01-1.04-.558l-.442-1.228a.902.902 0 01.431-1.108l2.554-1.433a.905.905 0 00.431-.963c-.077-.343-.132-.7-.187-1.054v-.008A.89.89 0 003.67 25l-2.885-.47A.874.874 0 010 23.647v-1.308a.9.9 0 01.785-.884l2.884-.47a.898.898 0 00.73-.76c.048-.313.105-.617.163-.928l.025-.135a.89.89 0 00-.431-.962l-2.55-1.433a.902.902 0 01-.431-1.107l.442-1.229a.883.883 0 011.04-.558l2.862.558a.894.894 0 00.95-.458c.166-.329.343-.642.531-.94a.9.9 0 00-.077-1.063L5.01 9.744a.9.9 0 01-.033-1.186l.828-1.005a.879.879 0 011.161-.168L9.44 8.929a.878.878 0 001.038-.1c.265-.236.542-.472.818-.695a.905.905 0 00.277-1.017l-1.04-2.764a.891.891 0 01.365-1.126l1.128-.66a.88.88 0 011.15.242L15 5.08c.299.348.663.437.973.325.265-.1.818-.314 1.073-.414a.893.893 0 00.607-.86l-.044-2.954a.9.9 0 01.73-.94L19.62.013a.892.892 0 011.007.627l.95 2.797a.893.893 0 00.862.604h1.084a.885.885 0 00.861-.604L25.336.64a.892.892 0 011.007-.627l1.281.224a.9.9 0 01.73.94L28.31 4.13a.893.893 0 00.605.86 21.52 21.52 0 011.083.414c.34.138.729.022.94-.28l1.84-2.326a.88.88 0 011.15-.247l1.127.66c.388.23.543.718.36 1.133l-1.04 2.764a.899.899 0 00.277 1.017c.276.225.553.46.818.695a.878.878 0 001.038.1l2.51-1.522a.866.866 0 011.16.169l.83 1.005a.9.9 0 01-.034 1.186l-1.912 2.226a.919.919 0 00-.078 1.063c.188.313.365.626.531.939a.882.882 0 00.95.459l2.863-.558a.877.877 0 011.04.558l.442 1.228a.902.902 0 01-.431 1.108l-2.554 1.431a.905.905 0 00-.43.963c.076.343.131.7.186 1.054l.001.008a.89.89 0 00.73.761zm-3.897-2.004C36.612 11.887 30.267 6.918 23.002 6.92a16.102 16.102 0 00-4.153.538c-.532.14-.968.523-1.182 1.034a1.802 1.802 0 00.093 1.577l5.761 10.24c.315.559.902.904 1.539.904h11.638c.545 0 1.06-.254 1.395-.687a1.8 1.8 0 00.322-1.533zM7.078 23a16.155 16.155 0 014.827-11.546 1.759 1.759 0 012.783.387l5.777 10.266c.31.549.31 1.223 0 1.772L14.64 34.118a1.76 1.76 0 01-2.784.375A16.15 16.15 0 017.078 23zm11.7 15.526c1.378.37 2.798.556 4.224.552 7.265.006 13.61-4.96 15.417-12.065a1.8 1.8 0 00-.321-1.533 1.764 1.764 0 00-1.395-.687H25.05c-.633 0-1.219.34-1.535.893L17.699 35.91a1.802 1.802 0 00-.1 1.577c.212.513.648.897 1.18 1.04z" fill="#009ADE"/></svg>