<svg width="40" height="46" fill="none" xmlns="http://www.w3.org/2000/svg"><path d="M1.468 18a1.516 1.516 0 01-.74-.185 1.382 1.382 0 01-.679-.84c-.1-.355-.046-.735.148-1.053C2.051 12.946 7.692 6 20.002 6c5.334 0 10.012 1.347 13.898 4.004 3.199 2.18 4.992 4.647 5.845 5.835.22.303.302.678.23 1.04a1.37 1.37 0 01-.614.883c-.673.428-1.578.264-2.043-.37-1.545-2.137-6.257-8.64-17.316-8.64-10.795 0-15.676 5.984-17.265 8.55-.26.437-.746.704-1.269.698z" fill="#009ADE"/><path d="M26.554 46a1.49 1.49 0 01-.364-.041c-8.927-2.188-12.26-11.019-12.396-11.386l-.021-.08c-.073-.256-1.865-6.311.885-9.858 1.26-1.617 3.178-2.447 5.71-2.447 2.353 0 4.05.724 5.218 2.223.962 1.223 1.346 2.732 1.718 4.185.782 3.028 1.346 4.618 4.595 4.781 1.427.072 2.364-.754 2.896-1.457 1.437-1.917 1.687-5.043.604-7.802-1.392-3.56-6.333-10.274-15.045-10.274-3.72 0-7.136 1.182-9.876 3.405-2.268 1.84-4.065 4.44-4.93 7.111-1.605 4.974.5 12.792.52 12.864.099.367.044.759-.153 1.086a1.425 1.425 0 01-.893.65 1.482 1.482 0 01-1.801-1.009c-.096-.356-2.344-8.695-.49-14.443C4.748 17.279 10.98 11 20.356 11c4.333 0 8.427 1.457 11.844 4.21 2.646 2.14 4.807 5.015 5.938 7.89 1.437 3.669 1.052 7.787-.98 10.478-1.354 1.794-3.281 2.732-5.417 2.63-5.563-.276-6.563-4.118-7.291-6.92-.75-2.876-1.23-4.262-4.094-4.262-1.573 0-2.678.428-3.365 1.315-.938 1.213-1.01 3.109-.907 4.485.068.958.232 1.907.49 2.834.23.57 3.209 7.8 10.345 9.55.372.088.694.32.893.643.198.324.258.713.164 1.08A1.475 1.475 0 0126.554 46z" fill="#009ADE"/><path d="M14.673 45c-.41 0-.804-.162-1.09-.45-3.633-3.725-5.688-7.89-6.46-13.1v-.027c-.435-3.449.2-8.33 3.314-11.687C12.735 17.259 15.966 16 20.022 16c4.798 0 8.568 2.18 10.919 6.294 1.706 2.989 2.044 5.967 2.053 6.09.036.38-.085.76-.335 1.053-.25.294-.61.478-1 .513-.81.086-1.54-.48-1.64-1.27a14.483 14.483 0 00-1.747-5.09c-1.822-3.142-4.594-4.739-8.26-4.739-3.168 0-5.646.932-7.35 2.77-2.458 2.651-2.933 6.735-2.596 9.436.678 4.606 2.49 8.27 5.688 11.545a1.384 1.384 0 01-.075 2.016 1.53 1.53 0 01-1.006.382z" fill="#009ADE"/><path d="M31.638 41c-3.114 0-5.761-.836-7.88-2.5-4.255-3.325-4.732-8.742-4.754-8.971-.04-.506.2-.994.632-1.28a1.502 1.502 0 011.459-.11c.471.219.786.665.827 1.17.01.08.436 4.512 3.716 7.064 1.941 1.503 4.536 2.1 7.733 1.752.796-.094 1.52.453 1.62 1.224.042.37-.07.74-.312 1.029-.242.288-.594.47-.975.505a18.29 18.29 0 01-2.066.117zm2.468-37.801C32.89 2.394 28.58 0 20.473 0 11.963 0 7.642 2.645 6.686 3.317c-.064.04-.123.085-.177.137a.034.034 0 01-.02.01A1.444 1.444 0 006 4.55c.005.39.163.763.439 1.034a1.43 1.43 0 001.03.415c.304 0 .6-.095.85-.272.042-.032 3.761-2.812 12.156-2.812 8.396 0 12.135 2.77 12.176 2.791.255.193.565.295.883.293.384.006.754-.144 1.03-.417.275-.272.432-.645.436-1.036 0-.593-.353-1.126-.894-1.348z" fill="#009ADE"/></svg>