<svg width="36" height="29" fill="none" xmlns="http://www.w3.org/2000/svg"><path fill-rule="evenodd" clip-rule="evenodd" d="M2.4 24.652h31.2v-2.348H2.4v2.348zm2.4 3.522h26.4v-2.348H4.8v2.348zM18 17.609c-3.976 0-7.2-3.154-7.2-7.044 0-3.89 3.224-7.043 7.2-7.043s7.2 3.153 7.2 7.043c-.005 3.888-3.226 7.04-7.2 7.044zm16.8-9.392c-3.974-.004-7.195-3.155-7.2-7.043V0H8.4v1.174c-.005 3.888-3.225 7.039-7.2 7.043H0v4.696h1.2c3.975.005 7.195 3.155 7.2 7.043v1.174h19.2v-1.174c.005-3.888 3.226-7.038 7.2-7.043H36V8.217h-1.2z" fill="#0588BD"/><path fill-rule="evenodd" clip-rule="evenodd" d="M6 1.174V0H0v5.87h1.2C3.85 5.867 5.997 3.766 6 1.174M1.2 15.26H0v5.87h6v-1.174c-.003-2.592-2.15-4.692-4.8-4.695M34.8 5.87H36V0h-6v1.174c.003 2.592 2.15 4.693 4.8 4.696M30 19.956v1.174h6v-5.87h-1.2c-2.65.004-4.797 2.104-4.8 4.696M18 5.87c2.65 0 4.8 2.102 4.8 4.695 0 2.594-2.15 4.696-4.8 4.696-2.651 0-4.8-2.102-4.8-4.696 0-2.593 2.149-4.695 4.8-4.695" fill="#0588BD"/></svg>