<svg width="38" height="30" fill="none" xmlns="http://www.w3.org/2000/svg"><path fill-rule="evenodd" clip-rule="evenodd" d="M5.29 0L3.571 1.719 31.853 30l1.718-1.719L5.29 0zm13.902 10.418l4.777 4.717c-.137-2.547-2.198-4.581-4.777-4.717m-.527 9.955l-4.777-4.717c.137 2.547 2.198 4.581 4.777 4.717" fill="#0588BD"/><path fill-rule="evenodd" clip-rule="evenodd" d="M18.929 22.872c-4.182 0-7.572-3.347-7.572-7.476 0-.667.09-1.33.268-1.974l-5.447-5.38C3.953 10.054 1.833 12.68 0 15.396c2.084 3.426 4.934 6.95 7.903 8.97 3.405 2.316 7.108 3.49 11.007 3.49a18.63 18.63 0 006.25-1.074l-4.229-4.175a7.652 7.652 0 01-2.002.265m-.001-14.953c4.182 0 7.572 3.347 7.572 7.476 0 .667-.09 1.33-.268 1.974l5.573 5.503c2.299-2.044 4.422-4.794 6.052-7.476-2.08-3.383-4.96-6.898-7.98-8.943C26.43 4.118 22.74 2.934 18.91 2.934a17.78 17.78 0 00-6.169 1.113l4.189 4.137a7.65 7.65 0 011.998-.265" fill="#0588BD"/></svg>