<svg width="450" height="453" xmlns="http://www.w3.org/2000/svg"><g fill="none" fill-rule="evenodd"><path fill="#0588BD" d="M130.026 391.12L126 388.698l119.595-201.58 5.405 3.25z"/><path fill="#000" d="M74 391.65l2.543 2.47L87 381.59l-2.543-2.47zM56 76.662L68.53 87.12 71 84.577 58.47 74.119zM54.804 347.12L41 356.34l2.195 2.78L57 349.897zM56 375.577l2.47 2.542L71 367.662l-2.47-2.543zM20.244 267.12L4 270.567l.756 3.551L21 270.671zm26.501 58L29 335.44l3.255 5.68L50 330.8zm-12.255-16L19 315.822l1.51 3.296L36 312.416zm-8.619-20L10 294.495l1.129 3.623L27 292.743zM74 60.59l10.457 12.53L87 70.65 76.543 58.12zm36 359.274l5.68 3.255L126 405.375l-5.68-3.256zm22 10.746l3.297 1.51L142 416.63l-3.296-1.51zm-6-383.746L115.68 29.12 110 32.375l10.32 17.744zm-34 361.06l2.779 2.195L104 396.315l-2.779-2.196zm0-363.609l9.221 13.804L104 55.924l-9.221-13.805zM27 159.497l-15.872-5.378L10 157.743l15.871 5.376zm376.256-32.377L421 116.8l-3.255-5.68L400 121.44zm12.254 16l15.49-6.704-1.51-3.297-15.49 6.704zm-397.892 103L1 248.065l.383 4.053L18 250.173zM394 76.662l-2.47-2.543L379 84.577l2.47 2.542zm38.382 129.458L449 204.172l-.383-4.054L432 202.066zm-8.254-43L440 157.742l-1.129-3.624L423 159.497zm4.628 22L445 181.67l-.756-3.552-16.244 3.45zm-33.561-80L409 95.897l-2.196-2.779L393 102.341zM18 202.066l-16.618-1.947L1 204.173l16.618 1.946zm3-20.498l-16.244-3.449L4 181.671l16.244 3.448z"/><path fill="#0588BD" d="M0 231.12h29v-9H0z"/><path fill="#000" d="M57 102.34l-13.804-9.22L41 95.897l13.804 9.221zm-7 19.1l-17.745-10.32L29 116.798l17.745 10.32zm-14 18.383l-15.49-6.704-1.51 3.297 15.49 6.703zM132 20.63l6.704 15.49L142 34.61l-6.703-15.49z"/><path fill="#0588BD" d="M221 452.12h9v-29h-9z"/><path fill="#000" d="M363 381.59l10.457 12.53 2.543-2.47-10.457-12.53zm0-310.94l2.543 2.47L376 60.59l-2.543-2.47zM153 439.99l3.623 1.13L162 425.247l-3.623-1.129zM346 55.924l2.779 2.195L358 44.315l-2.779-2.196zm47 293.974l13.804 9.221 2.196-2.778-13.804-9.222zm-69 55.477l10.32 17.744 5.68-3.255-10.32-17.745zm22-9.06l9.221 13.804 2.779-2.196-9.221-13.804z"/><path fill="#0588BD" d="M421 231.12h29v-9h-29z"/><path fill="#000" d="M432 250.173l16.618 1.946.382-4.054-16.618-1.946zm-4 20.498l16.244 3.448.756-3.551-16.244-3.449zM400 330.8l17.745 10.32 3.255-5.68-17.745-10.32zM340 32.375l-5.68-3.256L324 46.865l5.68 3.254zm74 280.041l15.49 6.703 1.51-3.296-15.49-6.704zm9-19.673l15.872 5.376 1.128-3.623-15.871-5.377zm-44 74.919l12.53 10.457 2.47-2.542-12.53-10.458zM308 34.61l3.296 1.51L318 20.63l-3.296-1.51zm-64 398.892l1.946 16.617 4.054-.382-1.946-16.618zm-44 16.235l4.054.382L206 433.502l-4.054-.383z"/><path fill="#0588BD" d="M221 29.12h9v-29h-9z"/><path fill="#000" d="M153 12.248l5.377 15.871L162 26.99l-5.377-15.87zm24-6.373l3.448 16.244 3.552-.755-3.448-16.245zm0 440.489l3.552.755L184 430.875l-3.552-.756zM200 2.502l1.946 16.617 4.054-.382-1.946-16.618zm88 422.746l5.377 15.871L297 439.99l-5.377-15.87zm0-398.258l3.623 1.13L297 12.247l-3.623-1.129zm-44-8.253l4.053.382L250 2.502l-4.054-.383zm64 397.892l6.704 15.49 3.296-1.51-6.703-15.49zM266 21.363l3.552.756L273 5.875l-3.552-.756zm0 409.513l3.448 16.243 3.552-.755-3.448-16.245zM77 106.955l4.98-5.836L263 249.531l-9.89 11.588z"/><path fill="#000" d="M379.612 200.12L381 210.527 182.375 240.12 180 222.32z"/><path d="M225.43 243.077c9.576 0 17.387-7.81 17.387-17.388 0-9.576-7.81-17.387-17.387-17.387-9.577 0-17.388 7.81-17.388 17.387 0 9.577 7.81 17.388 17.388 17.388" fill="#000"/><path d="M225.43 235.384c5.34 0 9.695-4.354 9.695-9.695 0-5.34-4.355-9.694-9.695-9.694s-9.695 4.355-9.695 9.694c0 5.34 4.355 9.695 9.695 9.695" fill="#FFF"/></g></svg>