<svg width="350" height="64" fill="none" xmlns="http://www.w3.org/2000/svg"><path d="M58.394 19.573L46.854 1.246 34.62 19.174l11.813 18.739h23.501l-11.54-18.34zM22.571 6.149L.918 37.913h41.643L22.571 6.149zM82.008 20.82L71.262 3.729l-9.877 14.423 12.433 19.762h18.948L82.008 20.82z" fill="#E9D666"/><path fill-rule="evenodd" clip-rule="evenodd" d="M102.429 38.822v-1.258l.758-.126c4.778-.793 5.32-.883 5.32-8.903V16.16l-.011-.373c-.175-5.935-.197-6.707-6.067-7.261V7.218h13.911c5.256 0 13.313 0 13.313 7.018 0 4.187-4.197 6.049-7.596 6.879v.088c4.657.98 9.726 3.672 9.726 9.206 0 7.721-8.344 8.413-14.098 8.413h-15.256zm12.155-8.398c-.007 3.277-.014 6.637 4.284 6.637 3.55 0 5.991-2.414 5.991-5.998 0-5.308-4.882-8.515-10.275-8.1v7.461zm8.157-15.497c0 4.553-3.399 6.276-7.459 6.276v.012h-.698V9.117c4.247 0 8.157.641 8.157 5.81z" fill="#00447C"/><path d="M141.796 17.38l.735.704-.548 5.169.087.088c1.619-2.327 3.873-5.672 7.136-5.672 1.469 0 2.951 1.207 2.951 2.653 0 1.95-2.067 3.773-3.686 4.553-.735-.98-1.793-2.553-3.126-2.553-2.677 0-2.814 3.308-2.814 5.257v5.445c0 3.81 0 3.723 5.118 4.742v1.119h-14.048v-1.132c3.5-.93 3.5-1.069 3.5-4.741v-7.169c0-3.257 0-2.515-2.765-4.552v-.742l7.46-3.17z" fill="#00447C"/><path fill-rule="evenodd" clip-rule="evenodd" d="M155.956 9.796c0 1.824 1.519 3.308 3.362 3.308 1.844 0 3.363-1.484 3.363-3.308 0-1.81-1.519-3.345-3.363-3.345-1.843 0-3.362 1.534-3.362 3.345zm.533 13.398c.289.468.289 1.114.289 2.65v7.168c0 3.672 0 3.81-3.5 4.741v1.12h12.479v-1.12c-1.765-.507-2.653-.74-3.099-1.315-.45-.58-.45-1.511-.45-3.426v-9.344l.187-5.584-.922-.704-7.46 3.169v.742c1.462 1.077 2.151 1.377 2.476 1.903zm32.034 8.233V6.074l-.835-.68-7.46 3.17v.742c1.519 1.085 2.229 1.382 2.561 1.914.291.467.291 1.116.291 2.638v4.465l-.659-.104c-1.637-.258-3.485-.55-5.468-.55-6.314 0-10.411 6.414-10.411 11.86 0 5.155 3.873 9.997 9.215 9.997 2.989 0 5.393-1.396 7.323-3.534l-.137 3.673 9.951-2.138-.137-1.12c-2.018.106-3.075.162-3.628-.338-.631-.57-.606-1.867-.606-4.642zm-11.196-11.809c3.586 0 5.753 3.446 5.753 7.257v7.583c-1.195 1.107-2.204 1.622-3.96 1.622-4.745 0-6.862-5.118-6.862-9.117 0-3.019 1.382-7.345 5.069-7.345zm41.247 2.088l-5.754-.277c.648 1.019.872 1.861.872 3.069 0 5.018-4.695 7.772-9.266 7.772-1.108 0-2.167-.189-3.225-.378l-.079.106c-.4.536-.893 1.195-.893 1.844 0 1.963 3.017 1.845 6.553 1.708 5.003-.195 11.044-.43 11.044 5.133 0 6.791-10.324 9.998-15.891 9.998-2.989 0-7.97-1.119-7.97-5.03 0-2.88 3.91-4.704 6.264-5.634v-.088c-1.93-.327-5.019-1.447-5.019-3.861 0-1.151 1.692-2.308 3.236-3.364.632-.432 1.24-.848 1.696-1.24-2.715-1.018-4.882-3.206-4.882-6.237 0-5.169 4.982-7.583 9.54-7.583 2.217 0 4.371.465 6.314 1.484h7.46v2.578zm-16.352 18.286c-1.432.691-2.815 2.188-2.815 3.81 0 3.119 4.235 4.238 6.675 4.238 2.902 0 7.423-1.119 7.423-4.703 0-3.12-2.578-3.534-5.156-3.534l-6.127.189zm2.578-9.206c-2.989 0-4.098-4-4.098-6.376 0-2 .835-5.257 3.4-5.257 3.089 0 4.147 3.961 4.147 6.376 0 2.138-.772 5.257-3.449 5.257zm27.772 4.691c-5.579 0-8.431-4.792-8.294-9.86v-.013h13.637c-.187-4.967-3.001-7.948-8.157-7.948-5.941 0-10.736 5.446-10.736 11.168 0 6.049 4.422 10.702 10.225 10.702 4.06 0 7.286-2.741 9.49-5.86l-1.146-.843c-1.42 1.635-2.802 2.654-5.019 2.654zm-3.786-16.135c2.441 0 3.176 2.515 3.413 4.464l-7.647.239c.461-2.1 1.656-4.704 4.234-4.704z" fill="#00447C"/><path d="M251.278 28.547c0 6.326-.274 8.464 7.136 9.03v1.308H239.11v-1.308c5.48-.93 6.078-.604 6.078-9.03V16.172c0-6.98-.411-6.841-6.078-7.633V7.23h14.322c4.334 0 13.588 0 13.588 8.275 0 7.068-7.137 9.03-12.766 10.136l-.324-1.345c3.824-1.02 6.178-3.446 6.178-7.584 0-5.345-3.737-7.634-8.843-7.634v19.468h.013z" fill="#00447C"/><path fill-rule="evenodd" clip-rule="evenodd" d="M279.785 17.656c-6.588 0-12.255 4.327-12.255 11.168 0 6.791 5.804 10.702 12.155 10.702 6.451 0 11.981-4.326 11.981-11.03 0-6.564-5.567-10.84-11.881-10.84zm-.374 1.673c4.608 0 6.177 5.86 6.177 9.772 0 3.357-1.195 8.753-5.529 8.74-4.658 0-6.451-5.81-6.451-9.583 0-3.534 1.706-8.93 5.803-8.93zm15.978-9.533c0 1.824 1.52 3.308 3.363 3.308s3.363-1.484 3.363-3.308c0-1.81-1.52-3.345-3.363-3.345s-3.363 1.534-3.363 3.345zm.533 13.398c.289.468.289 1.114.289 2.65v7.168c0 3.672 0 3.81-3.499 4.741v1.12h12.479v-1.12c-1.766-.507-2.653-.74-3.099-1.315-.451-.58-.451-1.511-.451-3.426v-9.344l.187-5.584-.921-.704-7.46 3.169v.742c1.462 1.077 2.151 1.377 2.475 1.903z" fill="#00447C"/><path d="M315.689 33.012c0 3.81 0 3.722 3.226 4.741v1.12h-12.167v-1.12c3.499-.93 3.499-1.069 3.499-4.741v-7.169c0-3.257 0-2.515-2.765-4.552v-.742l7.46-3.17.922.705-.511 2.93c2.765-1.861 5.48-3.345 8.382-3.345 1.793 0 3.773.98 4.832 2.465 1.295 1.81 1.195 4.238 1.195 6.376v6.514c0 3.673 0 3.81 3.5 4.742v1.119h-12.168v-1.132c3.226-1.019 3.226-.93 3.226-4.741V27.29c0-3.673-.834-6.464-5.206-6.464-1.245 0-2.391.465-3.449 1.068v11.118h.024zm33.987 4.791c-1.333.466-2.765.88-4.197 1.208-1.47.327-2.902.515-4.371.515-4.521 0-4.521-3.345-4.521-6.98V21.19h-3.549v-1.12l8.107-7.067h.872v5.634h7.647v2.553h-7.647v8.137c0 5.257-.137 7.206 5.853 7.206h1.794v1.27h.012z" fill="#00447C"/><path d="M226.374 53.043c0-.148.124-.284.286-.284h6.079c.161 0 .285.136.285.284v.841a.288.288 0 01-.285.285h-4.811v3.498h4.065c.149 0 .286.136.286.285v.828a.297.297 0 01-.286.284h-4.065v3.981a.297.297 0 01-.286.285h-.995a.289.289 0 01-.286-.285V53.043h.013zm11.635 0c0-.148.137-.284.286-.284h1.007c.149 0 .286.136.286.284v10.015a.297.297 0 01-.286.284h-1.007a.297.297 0 01-.286-.284V53.043zm7.571-.16c0-.149.137-.272.286-.272h.385l6.601 7.59h.013v-7.158c0-.148.124-.284.286-.284h.969c.15 0 .286.136.286.284V63.22c0 .148-.136.272-.286.272h-.397l-6.601-7.802h-.013v7.369a.288.288 0 01-.286.284h-.957a.297.297 0 01-.286-.284V52.883z" fill="#0989BE"/><path fill-rule="evenodd" clip-rule="evenodd" d="M263.643 52.771l-4.675 10.176c-.087.197.038.395.261.395h.958a.37.37 0 00.348-.222c.136-.308.274-.612.411-.914.177-.388.353-.774.521-1.163h4.973l.944 2.077a.347.347 0 00.348.222h.958c.236 0 .348-.198.261-.395l-4.637-10.176a.378.378 0 00-.261-.16h-.149a.374.374 0 00-.261.16zm.348 2.832l1.864 4.141h-3.791l1.852-4.141h.075z" fill="#0989BE"/><path d="M273.5 52.883c0-.149.137-.272.286-.272h.386l6.601 7.59h.012v-7.158c0-.148.125-.284.286-.284h.97c.149 0 .286.136.286.284V63.22c0 .148-.137.272-.286.272h-.398l-6.601-7.802h-.012v7.369a.289.289 0 01-.286.284h-.958a.297.297 0 01-.286-.284V52.883zm19.542-.273c1.542 0 2.648.52 3.68 1.41.137.124.137.297.012.42l-.671.68c-.112.137-.248.137-.385 0-.721-.618-1.691-1.013-2.636-1.013-2.175 0-3.816 1.817-3.816 3.931s1.653 3.92 3.829 3.92c1.106 0 1.889-.433 2.61-1.002.137-.111.274-.087.361-.012l.696.68c.124.111.087.296-.012.408-1.032 1.001-2.337 1.47-3.692 1.47-3.046 0-5.495-2.398-5.495-5.427a5.503 5.503 0 015.519-5.464zm8.901.433c0-.148.137-.284.286-.284h1.007c.149 0 .286.136.286.284v10.015a.297.297 0 01-.286.284h-1.007a.297.297 0 01-.286-.284V53.043z" fill="#0989BE"/><path fill-rule="evenodd" clip-rule="evenodd" d="M312.758 52.771l-4.674 10.176c-.087.197.025.395.261.395h.957a.367.367 0 00.348-.222c.136-.308.275-.612.412-.914.177-.388.353-.774.521-1.163h4.972l.945 2.077a.347.347 0 00.348.222h.957c.236 0 .348-.198.261-.395L313.43 52.77a.378.378 0 00-.262-.16h-.149a.378.378 0 00-.261.16zm.348 2.832l1.865 4.141h-3.792l1.853-4.141h.074z" fill="#0989BE"/><path d="M322.616 53.043c0-.148.125-.284.286-.284h1.007c.149 0 .286.136.286.284v8.89h4.127c.162 0 .286.136.286.284v.828a.288.288 0 01-.286.285h-5.42a.289.289 0 01-.286-.285V53.043z" fill="#0989BE"/><path d="M217.486 58.162H23.266" stroke="#0989BE" stroke-width="1.057" stroke-linecap="round"/></svg>