<svg width="46" height="46" viewBox="0 0 46 46" fill="none" xmlns="http://www.w3.org/2000/svg">
<path fill-rule="evenodd" clip-rule="evenodd" d="M42.312 20.998L45.196 21.467C45.636 21.5194 45.9751 21.8834 46 22.3301V23.6409C45.994 24.0924 45.6587 24.47 45.2148 24.5252L42.3308 24.9942C41.95 25.0618 41.6554 25.3691 41.6009 25.7557C41.5526 26.0679 41.4959 26.3724 41.4381 26.6826L41.413 26.8175C41.331 27.1993 41.5062 27.5901 41.8442 27.78L44.3976 29.2114C44.7976 29.4179 44.9825 29.8929 44.8289 30.3191L44.3866 31.5473C44.2308 31.973 43.7837 32.2131 43.3471 32.1056L40.484 31.5473C40.1024 31.4767 39.7191 31.6619 39.5341 32.0062C39.3682 32.3307 39.1913 32.6438 39.0033 32.9452C38.794 33.278 38.8255 33.7099 39.0807 34.0082L40.9927 36.2346C41.2997 36.5643 41.3139 37.0737 41.0259 37.4204L40.1976 38.4253C39.9084 38.7698 39.4101 38.8421 39.0365 38.5939L36.5362 37.0676C36.2052 36.8696 35.7855 36.9102 35.4978 37.1681C35.2324 37.4037 34.9559 37.6381 34.6795 37.8615C34.3797 38.1053 34.2683 38.5156 34.403 38.8798L35.4425 41.6433C35.6265 42.0586 35.4687 42.5472 35.0776 42.7732L33.9496 43.4331C33.5598 43.6599 33.0634 43.5552 32.7962 43.1897L30.9163 40.8516C30.6398 40.5055 30.2859 40.5055 29.9984 40.6171L29.9195 40.6478C29.6534 40.7514 29.3591 40.8659 28.9368 41.009C28.57 41.1314 28.3242 41.4799 28.3297 41.8699L28.3739 44.8232C28.4009 45.2778 28.0877 45.6812 27.6441 45.7634L26.3624 45.9867C25.9184 46.0643 25.4868 45.7956 25.3561 45.3603L24.405 42.5689C24.2777 42.2004 23.93 41.9566 23.5436 41.9648H22.4599C22.0727 41.9541 21.7236 42.1988 21.5984 42.5689L20.6474 45.3603C20.5166 45.7956 20.085 46.0643 19.6411 45.9867L18.3594 45.7634C17.9158 45.6812 17.6026 45.2778 17.6295 44.8232L17.6738 41.8699C17.6793 41.4799 17.4335 41.1314 17.0667 41.009C16.6022 40.8516 16.3479 40.7623 15.9719 40.606C15.6733 40.4831 15.2973 40.606 15.0651 40.8963L13.2084 43.2009C12.9425 43.565 12.449 43.671 12.0594 43.4476L10.9314 42.7877C10.5432 42.5593 10.3863 42.0733 10.5665 41.6578L11.606 38.8943C11.7431 38.5306 11.6313 38.1192 11.3295 37.8771C11.0531 37.6527 10.7766 37.4182 10.5112 37.1826C10.2235 36.9247 9.80376 36.8841 9.47281 37.0821L6.96364 38.604C6.59147 38.8586 6.08853 38.7856 5.80251 38.4354L4.97423 37.4305C4.68622 37.0838 4.70048 36.5744 5.0074 36.2447L6.91941 34.016C7.16919 33.7155 7.20037 33.2872 6.99682 32.953C6.80883 32.6397 6.63189 32.3266 6.46601 32.014C6.28384 31.6667 5.89824 31.4804 5.51609 31.5551L2.65306 32.1134C2.21601 32.2242 1.76685 31.9829 1.61356 31.5551L1.17122 30.3269C1.01763 29.9007 1.20257 29.4257 1.6025 29.2193L4.1559 27.7856C4.49011 27.5922 4.66393 27.2043 4.58718 26.8231C4.51032 26.4795 4.45527 26.1237 4.40037 25.7689L4.39919 25.7613C4.34739 25.3734 4.05157 25.0647 3.66933 24.9998L0.785283 24.5308C0.335776 24.4868 -0.0054279 24.1025 0.000132391 23.6465V22.3379C0.00617339 21.8864 0.341455 21.5088 0.785283 21.4536L3.66933 20.9846C4.05018 20.917 4.34473 20.6097 4.39919 20.2231C4.44748 19.911 4.50422 19.6066 4.56202 19.2964L4.58718 19.1613C4.6691 18.7795 4.49395 18.3887 4.1559 18.1988L1.60582 16.7662C1.20589 16.5598 1.02095 16.0848 1.17454 15.6586L1.61688 14.4304C1.77262 14.0047 2.21973 13.7646 2.65637 13.8721L5.51941 14.4304C5.90103 14.501 6.28433 14.3158 6.46933 13.9715C6.63521 13.6432 6.81214 13.3302 7.00014 13.0324C7.20946 12.6997 7.178 12.2677 6.92273 11.9695L5.01072 9.74305C4.70379 9.41332 4.68954 8.90395 4.97754 8.55726L5.80582 7.55235C6.09502 7.20788 6.59335 7.13552 6.96696 7.38375L9.43963 8.92907C9.77059 9.1271 10.1903 9.08648 10.478 8.82858C10.7434 8.59299 11.0199 8.35739 11.2963 8.13408C11.5963 7.89079 11.7077 7.48067 11.5728 7.11689L10.5333 4.3534C10.3519 3.93888 10.5093 3.45295 10.8982 3.22679L12.0262 2.5669C12.4148 2.34256 12.908 2.44659 13.1752 2.80919L15.0009 5.08028C15.2995 5.42753 15.6644 5.51686 15.9741 5.4052C16.2395 5.30471 16.7924 5.09145 17.0467 4.99096C17.4136 4.86862 17.6593 4.5201 17.6539 4.13009L17.6096 1.17678C17.5827 0.7222 17.8959 0.318769 18.3395 0.236631L19.6212 0.0133182C20.0651 -0.064318 20.4967 0.204355 20.6275 0.63971L21.5785 3.4367C21.7058 3.80516 22.0536 4.049 22.44 4.04076H23.5237C23.9108 4.05151 24.2599 3.80674 24.3851 3.4367L25.3362 0.63971C25.4669 0.204355 25.8985 -0.064318 26.3425 0.0133182L27.6242 0.236631C28.0678 0.318769 28.381 0.7222 28.354 1.17678L28.3098 4.13009C28.3045 4.5191 28.5491 4.86684 28.9147 4.98984C29.3791 5.14727 29.9984 5.40408 29.9984 5.40408C30.338 5.54188 30.7268 5.42641 30.9384 5.12494L32.7785 2.79803C33.0444 2.43387 33.5379 2.32788 33.9275 2.55127L35.0554 3.21115C35.4433 3.44163 35.598 3.92939 35.4148 4.34447L34.3753 7.10796C34.2382 7.47163 34.3501 7.88308 34.6518 8.12515C34.9283 8.34958 35.2047 8.58406 35.4701 8.81965C35.7578 9.07754 36.1776 9.11817 36.5085 8.92014L39.0177 7.39827C39.3899 7.14362 39.8928 7.21665 40.1788 7.56687L41.0071 8.57177C41.2951 8.91847 41.2809 9.42784 40.9739 9.75756L39.0619 11.984C38.8121 12.2845 38.781 12.7128 38.9845 13.047C39.1725 13.3603 39.3494 13.6733 39.5153 13.986C39.6975 14.3333 40.0831 14.5196 40.4652 14.4449L43.3283 13.8866C43.7653 13.7758 44.2145 14.0171 44.3678 14.4449L44.8101 15.6731C44.9637 16.0993 44.7788 16.5743 44.3788 16.7807L41.8254 18.2122C41.4912 18.4056 41.3174 18.7935 41.3942 19.1747C41.471 19.5183 41.5261 19.8741 41.581 20.2288L41.5821 20.2365C41.6339 20.6244 41.9298 20.933 42.312 20.998ZM38.415 18.9938C36.6115 11.8873 30.2674 6.91837 23.0017 6.92149C21.6004 6.91898 20.2047 7.0995 18.8493 7.45856C18.3174 7.59931 17.8806 7.9817 17.6672 8.49333C17.4538 9.00497 17.4881 9.58769 17.76 10.0702L23.5215 20.3102C23.836 20.8687 24.4234 21.2136 25.0597 21.2135H36.6976C37.2426 21.2138 37.7573 20.9604 38.0928 20.5268C38.4283 20.0932 38.5472 19.5276 38.415 18.9938ZM7.07755 23C7.07353 18.6504 8.81501 14.4847 11.9046 11.4536C12.2959 11.0624 12.8454 10.8775 13.391 10.9534C13.9366 11.0294 14.416 11.3575 14.688 11.8411L20.4649 22.1068C20.7755 22.6558 20.7755 23.3297 20.4649 23.8787L14.6404 34.1176C14.3664 34.5998 13.8856 34.9256 13.3399 34.9992C12.7941 35.0727 12.2456 34.8855 11.8559 34.4928C8.7968 31.4668 7.07431 27.324 7.07755 23ZM18.7785 38.5258C20.1561 38.8964 21.5761 39.0822 23.0017 39.0785C30.2669 39.0837 36.6122 34.1179 38.4194 27.0129C38.5515 26.4793 38.4328 25.9139 38.0976 25.4803C37.7623 25.0468 37.2479 24.7933 36.7032 24.7932H25.0486C24.4156 24.7923 23.8303 25.1329 23.5137 25.6864L17.6992 35.9086C17.4249 36.3901 17.3881 36.9731 17.5996 37.486C17.811 37.9988 18.2468 38.3831 18.7785 38.5258Z" fill="#009ADE"/>
</svg>
