<svg width="40" height="46" viewBox="0 0 40 46" fill="none" xmlns="http://www.w3.org/2000/svg">
<path d="M1.46832 17.9996C1.20885 18.0019 0.953375 17.938 0.727843 17.8146C0.393674 17.634 0.149122 17.3317 0.0492693 16.9757C-0.0505837 16.6198 0.00265853 16.2402 0.197004 15.9224C2.05109 12.9464 7.69221 6 20.0015 6C25.3359 6 30.0144 7.34747 33.9004 10.0036C37.0989 12.1834 38.8915 14.6508 39.7454 15.8392C39.9642 16.1418 40.0468 16.5166 39.9744 16.8785C39.902 17.2405 39.6807 17.559 39.3608 17.7619C38.6878 18.1897 37.7832 18.0259 37.3182 17.392C35.7728 15.2547 31.0606 8.75135 20.0015 8.75135C9.20683 8.75135 4.32639 14.7359 2.73676 17.3023C2.47667 17.7387 1.99132 18.0055 1.46832 17.9996Z" fill="#009ADE"/>
<path d="M26.5543 45.9999C26.4315 46.0013 26.3091 45.9876 26.1899 45.959C17.2628 43.7708 13.9294 34.9402 13.7938 34.573L13.7727 34.4921C13.6996 34.2372 11.9084 28.1817 14.6582 24.635C15.9187 23.0177 17.8358 22.1881 20.3673 22.1881C22.7209 22.1881 24.4189 22.9121 25.5861 24.4105C26.5475 25.634 26.9321 27.1428 27.3042 28.5965C28.0858 31.6238 28.6502 33.2135 31.899 33.3771C33.3258 33.4485 34.2632 32.6227 34.7949 31.9196C36.2322 30.0026 36.4822 26.8774 35.3987 24.1184C34.0065 20.5574 29.0656 13.8436 20.3538 13.8436C16.6349 13.8436 13.2179 15.0262 10.4778 17.2486C8.20972 19.0895 6.41276 21.6886 5.54745 24.3601C3.94278 29.3338 6.04741 37.1522 6.0676 37.2235C6.16687 37.5911 6.11188 37.9828 5.9151 38.3097C5.71833 38.6367 5.39644 38.8711 5.0225 38.9598C4.24469 39.1644 3.4442 38.7164 3.22073 37.9513C3.12459 37.5946 0.876709 29.2558 2.73039 23.5076C4.74944 17.279 10.9806 11 20.3567 11C24.69 11 28.7839 12.4575 32.2009 15.2098C34.8468 17.3504 37.0081 20.2254 38.1388 23.0995C39.5762 26.7689 39.1906 30.8874 37.1591 33.5779C35.8054 35.3722 33.8776 36.3102 31.7423 36.2084C26.1793 35.9325 25.1794 32.0899 24.4506 29.2872C23.7007 26.4122 23.2209 25.026 20.3567 25.026C18.7838 25.026 17.6791 25.4541 16.9916 26.3408C16.0542 27.5538 15.9811 29.4499 16.085 30.8256C16.1531 31.784 16.3174 32.7334 16.5753 33.6597C16.8041 34.2305 19.7837 41.4609 26.9196 43.2105C27.2922 43.2978 27.6138 43.5293 27.8126 43.8531C28.0113 44.1769 28.0706 44.566 27.9772 44.9334C27.7983 45.5644 27.2166 46.0004 26.5543 45.9999Z" fill="#009ADE"/>
<path d="M14.6734 45C14.2624 45.0008 13.8686 44.8384 13.5825 44.5501C9.95012 40.8248 7.89542 36.6592 7.12221 31.4504V31.4227C6.6882 27.9744 7.32358 23.0924 10.4369 19.7358C12.735 17.259 15.9657 16 20.0223 16C24.8199 16 28.5901 18.1798 30.941 22.2938C32.6467 25.2827 32.9849 28.261 32.9937 28.3833C33.0298 28.764 32.9094 29.1431 32.6591 29.437C32.4088 29.7309 32.0491 29.9154 31.6594 29.9498C30.8493 30.0357 30.1186 29.4705 30.0182 28.6803C29.7607 26.8933 29.1689 25.1678 28.2724 23.5901C26.4503 20.4484 23.6781 18.8513 20.0115 18.8513C16.8444 18.8513 14.3665 19.7826 12.6617 21.6214C10.2043 24.2721 9.72921 28.3556 10.0664 31.0569C10.7439 35.6629 12.5552 39.327 15.7535 42.6015C16.0232 42.8757 16.1676 43.245 16.1536 43.6251C16.1396 44.0051 15.9684 44.3634 15.6792 44.6179C15.4036 44.8621 15.0454 44.9981 14.6734 45Z" fill="#009ADE"/>
<path d="M31.6379 41C28.5241 41 25.8769 40.1636 23.7585 38.5009C19.5026 35.1748 19.0255 29.7575 19.0044 29.5289C18.964 29.0234 19.2047 28.5353 19.6358 28.2486C20.067 27.962 20.623 27.9202 21.0945 28.139C21.5661 28.3578 21.8814 28.804 21.9218 29.3095C21.9323 29.3895 22.3577 33.8207 25.6383 36.3727C27.5794 37.8764 30.1739 38.4731 33.3711 38.1245C34.1666 38.0309 34.8906 38.5783 34.9913 39.3495C35.0335 39.7191 34.921 40.0897 34.6788 40.378C34.4367 40.6664 34.0853 40.8483 33.7036 40.8829C33.0179 40.9605 32.3282 40.9996 31.6379 41Z" fill="#009ADE"/>
<path d="M34.1063 3.19892C32.8904 2.39406 28.5792 0 20.4727 0C11.9634 0 7.64164 2.64479 6.68561 3.31696C6.62247 3.35639 6.56337 3.40214 6.50918 3.45354C6.50346 3.45917 6.49601 3.46261 6.48808 3.4633C6.17924 3.73763 6.00142 4.13395 6 4.55106C6.0053 4.94142 6.16308 5.31359 6.43852 5.5854C6.71396 5.85721 7.08441 6.00631 7.46808 5.99979C7.77256 5.99959 8.06969 5.90461 8.31958 5.72761C8.36081 5.69639 12.0804 2.916 20.4755 2.916C28.8707 2.916 32.6104 5.68663 32.6507 5.70712C32.906 5.89973 33.216 6.00247 33.5338 5.99979C33.9178 6.00579 34.2884 5.85592 34.5635 5.58332C34.8386 5.31072 34.9957 4.93786 35 4.54716C35.0002 3.9544 34.6465 3.4209 34.1063 3.19892Z" fill="#009ADE"/>
</svg>
