<svg width="38" height="30" viewBox="0 0 38 30" fill="none" xmlns="http://www.w3.org/2000/svg">
<path fill-rule="evenodd" clip-rule="evenodd" d="M5.29 0L3.57141 1.71859L31.8529 30L33.5714 28.2814L5.29 0Z" fill="#0588BD"/>
<path fill-rule="evenodd" clip-rule="evenodd" d="M19.192 10.4181L23.9691 15.1354C23.8316 12.5884 21.7713 10.5538 19.192 10.4181" fill="#0588BD"/>
<path fill-rule="evenodd" clip-rule="evenodd" d="M18.6652 20.3729L13.8881 15.6556C14.0255 18.2026 16.0859 20.2372 18.6652 20.3729" fill="#0588BD"/>
<path fill-rule="evenodd" clip-rule="evenodd" d="M18.9286 22.8721C14.747 22.8723 11.357 19.525 11.3567 15.3958C11.3567 14.7289 11.4471 14.0652 11.6253 13.4219L6.17781 8.04187C3.95292 10.0543 1.83292 12.6805 0 15.3955C2.08372 18.8222 4.93405 22.3456 7.90268 24.3659C11.3082 26.6821 15.0111 27.8565 18.9096 27.8565C21.0401 27.858 23.1547 27.4943 25.1592 26.7817L20.9311 22.6073C20.2786 22.7836 19.605 22.8727 18.9286 22.8721" fill="#0588BD"/>
<path fill-rule="evenodd" clip-rule="evenodd" d="M18.9285 7.91887C23.1101 7.91864 26.5001 11.2659 26.5004 15.3951C26.5004 16.062 26.4101 16.7258 26.2318 17.369L31.8047 22.8721C34.1037 20.8278 36.2269 18.0778 37.8571 15.3955C35.7766 12.0131 32.8963 8.49831 29.8771 6.45314C26.429 4.11825 22.7387 2.93445 18.9096 2.93445C16.8026 2.93741 14.7132 3.31443 12.7413 4.04738L16.93 8.18367C17.5812 8.00766 18.2534 7.91864 18.9285 7.91887" fill="#0588BD"/>
</svg>
