<svg width="36" height="28" viewBox="0 0 36 28" fill="none" xmlns="http://www.w3.org/2000/svg">
<path fill-rule="evenodd" clip-rule="evenodd" d="M5.30357 15.0934C5.30357 14.7231 5.59141 14.4229 5.94643 14.4229H13.3393C13.6943 14.4229 13.9821 14.7231 13.9821 15.0934V20.4572C13.9821 20.8274 13.6943 21.1276 13.3393 21.1276H5.94643C5.59141 21.1276 5.30357 20.8274 5.30357 20.4572V15.0934ZM0 26.6591C0 27.3997 0.575598 28 1.28571 28H34.7143C35.4244 28 36 27.3997 36 26.6591V10.4H0V26.6591Z" fill="#0588BD"/>
<path fill-rule="evenodd" clip-rule="evenodd" d="M34.7143 0H1.28571C0.575598 0 0 0.489181 0 1.09268V5.6H36V1.09268C36 0.489181 35.4244 0 34.7143 0" fill="#0588BD"/>
</svg>
