<svg width="36" height="29" viewBox="0 0 36 29" fill="none" xmlns="http://www.w3.org/2000/svg">
<path fill-rule="evenodd" clip-rule="evenodd" d="M2.40002 24.6521H33.6V22.3043H2.40002V24.6521Z" fill="#0588BD"/>
<path fill-rule="evenodd" clip-rule="evenodd" d="M4.80005 28.1739H31.2V25.826H4.80005V28.1739Z" fill="#0588BD"/>
<path fill-rule="evenodd" clip-rule="evenodd" d="M18 17.6087C14.0236 17.6087 10.8 14.4552 10.8 10.5652C10.8 6.67524 14.0236 3.52174 18 3.52174C21.9764 3.52174 25.2 6.67524 25.2 10.5652C25.1954 14.4534 21.9745 17.6042 18 17.6087V17.6087ZM34.8 8.21739C30.8255 8.21292 27.6046 5.06206 27.6 1.17391V0H8.4V1.17391C8.39543 5.06206 5.17455 8.21292 1.2 8.21739H0V12.913H1.2C5.17455 12.9175 8.39543 16.0684 8.4 19.9565V21.1304H27.6V19.9565C27.6046 16.0684 30.8255 12.9175 34.8 12.913H36V8.21739H34.8Z" fill="#0588BD"/>
<path fill-rule="evenodd" clip-rule="evenodd" d="M6 1.17391V0H0V5.86957H1.2C3.84975 5.8667 5.99708 3.76606 6 1.17391" fill="#0588BD"/>
<path fill-rule="evenodd" clip-rule="evenodd" d="M1.2 15.2609H0V21.1304H6V19.9565C5.99708 17.3644 3.84975 15.2637 1.2 15.2609" fill="#0588BD"/>
<path fill-rule="evenodd" clip-rule="evenodd" d="M34.8 5.86957H36V0H30V1.17391C30.0029 3.76606 32.1502 5.8667 34.8 5.86957" fill="#0588BD"/>
<path fill-rule="evenodd" clip-rule="evenodd" d="M30 19.9565V21.1304H36V15.2609H34.8C32.1502 15.2637 30.0029 17.3644 30 19.9565" fill="#0588BD"/>
<path fill-rule="evenodd" clip-rule="evenodd" d="M18 5.86951C20.6509 5.86951 22.7999 7.97184 22.7999 10.5652C22.7999 13.1585 20.6509 15.2608 18 15.2608C15.349 15.2608 13.2 13.1585 13.2 10.5652C13.2 7.97184 15.349 5.86951 18 5.86951" fill="#0588BD"/>
</svg>
