<?xml version="1.0" encoding="UTF-8"?>
<svg width="450px" height="453px" viewBox="0 0 450 453" version="1.1" xmlns="http://www.w3.org/2000/svg" xmlns:xlink="http://www.w3.org/1999/xlink">
    <title>Group 69</title>
    <g id="Page-1" stroke="none" stroke-width="1" fill="none" fill-rule="evenodd">
        <g id="Desktop-HD" transform="translate(-205.000000, -2258.000000)">
            <g id="Group-69" transform="translate(205.000000, 2258.000000)">
                <polygon id="Fill-1" fill="#0588BD" points="130.026327 391.119403 126 388.698694 245.594793 187.119403 251 190.369136"></polygon>
                <polygon id="Fill-2" fill="#000000" points="74 391.649398 76.542664 394.119403 87 381.589408 84.457336 379.119403"></polygon>
                <polygon id="Fill-3" fill="#000000" points="56 76.6620669 68.529995 87.119403 71 84.576739 58.4694662 74.119403"></polygon>
                <polygon id="Fill-4" fill="#000000" points="54.8041033 347.119403 41 356.340376 43.1953514 359.119403 57 349.897928"></polygon>
                <polygon id="Fill-5" fill="#000000" points="56 375.576641 58.4694662 378.119403 71 367.661665 68.529995 365.119403"></polygon>
                <polygon id="Fill-6" fill="#000000" points="20.2442322 267.119403 4 270.567726 4.75576785 274.119403 21 270.67108"></polygon>
                <polygon id="Fill-7" fill="#000000" points="46.7446824 325.119403 29 335.439954 32.254797 341.119403 50 330.799377"></polygon>
                <polygon id="Fill-8" fill="#000000" points="34.4903098 309.119403 19 315.82329 20.5096902 319.119403 36 312.416043"></polygon>
                <polygon id="Fill-9" fill="#000000" points="25.8710042 289.119403 10 294.496272 11.1289958 298.119403 27 292.742534"></polygon>
                <polygon id="Fill-10" fill="#000000" points="74 60.589408 84.4568366 73.119403 87 70.649398 76.542664 58.119403"></polygon>
                <polygon id="Fill-11" fill="#000000" points="110 419.864085 115.679974 423.119403 126 405.374721 120.320026 402.119403"></polygon>
                <polygon id="Fill-12" fill="#000000" points="132 430.609713 135.29664 432.119403 142 416.629093 138.703887 415.119403"></polygon>
                <polygon id="Fill-13" fill="#000000" points="126 46.8640854 115.679974 29.119403 110 32.3747206 120.320026 50.119403"></polygon>
                <polygon id="Fill-14" fill="#000000" points="92 407.923506 94.7785252 410.119403 104 396.3153 101.221475 394.119403"></polygon>
                <polygon id="Fill-15" fill="#000000" points="92 44.3152997 101.221475 58.119403 104 55.9235063 94.7785252 42.119403"></polygon>
                <polygon id="Fill-16" fill="#000000" points="27 159.496604 11.1284979 154.119403 10 157.742758 25.8709688 163.119403"></polygon>
                <polygon id="Fill-17" fill="#000000" points="403.255757 127.119403 421 116.799377 417.744763 111.119403 400 121.439429"></polygon>
                <polygon id="Fill-18" fill="#000000" points="415.50969 143.119403 431 136.415516 429.49031 133.119403 414 139.822763"></polygon>
                <polygon id="Fill-19" fill="#000000" points="17.6176655 246.119403 1 248.065654 1.38286845 252.119403 18 250.172556"></polygon>
                <polygon id="Fill-20" fill="#000000" points="394 76.6620669 391.529995 74.119403 379 84.576739 381.470005 87.119403"></polygon>
                <polygon id="Fill-21" fill="#000000" points="432.382334 206.119403 449 204.173151 448.617132 200.119403 432 202.065654"></polygon>
                <polygon id="Fill-22" fill="#000000" points="424.128463 163.119403 440 157.742758 438.871004 154.119403 423 159.496604"></polygon>
                <polygon id="Fill-23" fill="#000000" points="428.755744 185.119403 445 181.67108 444.244256 178.119403 428 181.567726"></polygon>
                <polygon id="Fill-24" fill="#000000" points="395.195426 105.119403 409 95.8979282 406.804028 93.119403 393 102.340878"></polygon>
                <polygon id="Fill-25" fill="#000000" points="18 202.065654 1.38233446 200.119403 1 204.173151 17.6176655 206.119403"></polygon>
                <polygon id="Fill-26" fill="#000000" points="21 181.567726 4.75627498 178.119403 4 181.67108 20.2442557 185.119403"></polygon>
                <polygon id="Fill-27" fill="#0588BD" points="0 231.119403 29 231.119403 29 222.119403 0 222.119403"></polygon>
                <polygon id="Fill-28" fill="#000000" points="57 102.340878 43.1958967 93.119403 41 95.8979282 54.8041033 105.119403"></polygon>
                <polygon id="Fill-29" fill="#000000" points="50 121.439429 32.2553176 111.119403 29 116.798852 46.7446824 127.119403"></polygon>
                <polygon id="Fill-30" fill="#000000" points="36 139.82329 20.5101839 133.119403 19 136.416043 34.4898161 143.119403"></polygon>
                <polygon id="Fill-31" fill="#000000" points="132 20.6295869 138.703887 36.119403 142 34.6097609 135.29664 19.119403"></polygon>
                <polygon id="Fill-32" fill="#0588BD" points="221 452.119403 230 452.119403 230 423.119403 221 423.119403"></polygon>
                <polygon id="Fill-33" fill="#000000" points="363 381.589408 373.457238 394.119403 376 391.649398 365.542762 379.119403"></polygon>
                <polygon id="Fill-34" fill="#000000" points="363 70.649398 365.542762 73.119403 376 60.589408 373.457238 58.119403"></polygon>
                <polygon id="Fill-35" fill="#000000" points="153 439.990407 156.622799 441.119403 162 425.248399 158.376645 424.119403"></polygon>
                <polygon id="Fill-36" fill="#000000" points="346 55.9235063 348.778525 58.119403 358 44.3152997 355.221475 42.119403"></polygon>
                <polygon id="Fill-37" fill="#000000" points="393 349.897928 406.803633 359.119403 409 356.340878 395.195822 347.119403"></polygon>
                <polygon id="Fill-38" fill="#000000" points="324 405.37464 334.320212 423.119403 340 419.864166 329.679788 402.119403"></polygon>
                <polygon id="Fill-39" fill="#000000" points="346 396.314829 355.220973 410.119403 358 407.923431 348.778525 394.119403"></polygon>
                <polygon id="Fill-40" fill="#0588BD" points="421 231.119403 450 231.119403 450 222.119403 421 222.119403"></polygon>
                <polygon id="Fill-41" fill="#000000" points="432 250.172958 448.617666 252.119403 449 248.065252 432.382334 246.119403"></polygon>
                <polygon id="Fill-42" fill="#000000" points="428 270.67108 444.244232 274.119403 445 270.567726 428.755768 267.119403"></polygon>
                <polygon id="Fill-43" fill="#000000" points="400 330.799377 417.744682 341.119403 421 335.439954 403.255318 325.119403"></polygon>
                <polygon id="Fill-44" fill="#000000" points="340 32.3747206 334.320212 29.119403 324 46.864606 329.679788 50.119403"></polygon>
                <polygon id="Fill-45" fill="#000000" points="414 312.415516 429.49031 319.119403 431 315.822763 415.50969 309.119403"></polygon>
                <polygon id="Fill-46" fill="#000000" points="423 292.742534 438.871502 298.119403 440 294.496272 424.129031 289.119403"></polygon>
                <polygon id="Fill-47" fill="#000000" points="379 367.662067 391.529995 378.119403 394 375.576739 381.470005 365.119403"></polygon>
                <polygon id="Fill-48" fill="#000000" points="308 34.6097128 311.296287 36.119403 318 20.6290932 314.703713 19.119403"></polygon>
                <polygon id="Fill-49" fill="#000000" points="244 433.501737 245.946251 450.119403 250 449.737069 248.053749 433.119403"></polygon>
                <polygon id="Fill-50" fill="#000000" points="200 449.737069 204.053749 450.119403 206 433.501737 201.946251 433.119403"></polygon>
                <polygon id="Fill-51" fill="#0588BD" points="221 29.119403 230 29.119403 230 0.119402985 221 0.119402985"></polygon>
                <polygon id="Fill-52" fill="#000000" points="153 12.2483988 158.376645 28.119403 162 26.9904072 156.623355 11.119403"></polygon>
                <polygon id="Fill-53" fill="#000000" points="177 5.87517083 180.448323 22.119403 184 21.3636351 180.551677 5.11940299"></polygon>
                <polygon id="Fill-54" fill="#000000" points="177 446.363635 180.551677 447.119403 184 430.875171 180.448323 430.119403"></polygon>
                <polygon id="Fill-55" fill="#000000" points="200 2.50173745 201.946251 19.119403 206 18.7370685 204.053749 2.11940299"></polygon>
                <polygon id="Fill-56" fill="#000000" points="288 425.247866 293.376869 441.119403 297 439.990407 291.623131 424.119403"></polygon>
                <polygon id="Fill-57" fill="#000000" points="288 26.9904072 291.623131 28.119403 297 12.2483988 293.376869 11.119403"></polygon>
                <polygon id="Fill-58" fill="#000000" points="244 18.7370685 248.053347 19.119403 250 2.50173745 245.946059 2.11940299"></polygon>
                <polygon id="Fill-59" fill="#000000" points="308 416.629045 314.703887 432.119403 318 430.609219 311.29664 415.119403"></polygon>
                <polygon id="Fill-60" fill="#000000" points="266 21.363128 269.551677 22.119403 273 5.87514724 269.448323 5.11940299"></polygon>
                <polygon id="Fill-61" fill="#000000" points="266 430.875678 269.448323 447.119403 273 446.363659 269.551677 430.119403"></polygon>
                <polygon id="Fill-62" fill="#000000" points="77 106.954558 81.9801832 101.119403 263 249.530908 253.110689 261.119403"></polygon>
                <polygon id="Fill-63" fill="#000000" points="379.611807 200.119403 381 210.528071 182.374664 240.119403 180 222.318727"></polygon>
                <g id="Group-68" transform="translate(208.000000, 208.119403)">
                    <path d="M17.4295758,34.9575227 C27.0063182,34.9575227 34.8171515,27.1466894 34.8171515,17.569947 C34.8171515,7.99320455 27.0063182,0.182901515 17.4295758,0.182901515 C7.85283333,0.182901515 0.042,7.99320455 0.042,17.569947 C0.042,27.1466894 7.85283333,34.9575227 17.4295758,34.9575227" id="Fill-64" fill="#000000"></path>
                    <path d="M17.4295758,27.265053 C22.7697273,27.265053 27.1245758,22.9102045 27.1245758,17.570053 C27.1245758,12.2304318 22.7697273,7.87558333 17.4295758,7.87558333 C12.0899545,7.87558333 7.73457576,12.2304318 7.73457576,17.570053 C7.73457576,22.9102045 12.0899545,27.265053 17.4295758,27.265053" id="Fill-66" fill="#FFFFFF"></path>
                </g>
            </g>
        </g>
    </g>
</svg>