<svg width="350" height="64" viewBox="0 0 350 64" fill="none" xmlns="http://www.w3.org/2000/svg">
<path d="M58.3943 19.5729L46.8544 1.24576L34.6196 19.1737L46.4325 37.9125H69.9342L58.3943 19.5729Z" fill="#E9D666"/>
<path d="M22.5713 6.1488L0.918457 37.9125H42.5613L22.5713 6.1488Z" fill="#E9D666"/>
<path d="M82.0077 20.8205L71.2619 3.72847L61.3848 18.1506L73.8181 37.9125H92.7658L82.0077 20.8205Z" fill="#E9D666"/>
<path fill-rule="evenodd" clip-rule="evenodd" d="M102.429 38.822V37.5643C102.693 37.5195 102.945 37.4776 103.187 37.4376C107.965 36.6449 108.507 36.555 108.507 28.5347V16.1597L108.496 15.7868C108.321 9.85236 108.299 9.0805 102.429 8.52599V7.21806H116.34C121.596 7.21806 129.653 7.21806 129.653 14.2356C129.653 18.4234 125.456 20.2847 122.057 21.1147V21.2028C126.714 22.1837 131.783 24.875 131.783 30.4085C131.783 38.1303 123.439 38.822 117.685 38.822H102.429ZM114.584 30.4241V30.4245C114.577 33.7014 114.57 37.0613 118.868 37.0613C122.418 37.0613 124.859 34.6467 124.859 31.0625C124.859 25.7553 119.977 22.5484 114.584 22.9634V30.0312C114.584 30.1619 114.584 30.2929 114.584 30.4241ZM122.741 14.9273C122.741 19.4798 119.342 21.2028 115.282 21.2028V21.2153H114.584V9.11706C118.831 9.11706 122.741 9.75845 122.741 14.9273Z" fill="#00447C"/>
<path d="M141.796 17.3796L142.531 18.0839L141.983 23.2527L142.07 23.3407C143.689 21.0141 145.943 17.6689 149.206 17.6689C150.675 17.6689 152.157 18.8762 152.157 20.3224C152.157 22.2717 150.09 24.0953 148.471 24.875C147.736 23.8941 146.678 22.322 145.345 22.322C142.668 22.322 142.531 25.6296 142.531 27.5789V33.0243C142.531 36.8349 142.531 36.7469 147.649 37.7656V38.8848H133.601V37.753C137.101 36.8223 137.101 36.684 137.101 33.0118V25.8434C137.101 22.5861 137.101 23.3281 134.336 21.2908V20.5488L141.796 17.3796Z" fill="#00447C"/>
<path fill-rule="evenodd" clip-rule="evenodd" d="M155.956 9.79618C155.956 11.6197 157.475 13.1037 159.318 13.1037C161.162 13.1037 162.681 11.6197 162.681 9.79618C162.681 7.98521 161.162 6.45092 159.318 6.45092C157.475 6.45092 155.956 7.98521 155.956 9.79618ZM156.489 23.1936C156.778 23.6617 156.778 24.3085 156.778 25.8434V33.0118C156.778 36.684 156.778 36.8223 153.278 37.753V38.8723H165.757V37.753C163.992 37.2463 163.104 37.0134 162.658 36.4383C162.208 35.8572 162.208 34.9268 162.208 33.0118V23.6677L162.395 18.0839L161.473 17.3796L154.013 20.5488V21.2908C155.475 22.3681 156.164 22.6683 156.489 23.1936Z" fill="#00447C"/>
<path fill-rule="evenodd" clip-rule="evenodd" d="M188.523 31.4272V6.07363L187.688 5.39452L180.228 8.56371V9.30571C181.747 10.3908 182.457 10.6875 182.789 11.2199C183.08 11.6871 183.08 12.3358 183.08 13.8583V18.3228C182.865 18.2895 182.645 18.2548 182.421 18.2194C180.784 17.9608 178.936 17.6689 176.953 17.6689C170.639 17.6689 166.542 24.0827 166.542 29.5282C166.542 34.6844 170.415 39.5262 175.757 39.5262C178.746 39.5262 181.15 38.1303 183.08 35.9923L182.943 39.6646L192.894 37.5266L192.757 36.4073C190.739 36.5131 189.682 36.5694 189.129 36.0691C188.498 35.4981 188.523 34.2021 188.523 31.4272ZM177.327 19.6182C180.913 19.6182 183.08 23.064 183.08 26.8746V34.458C181.885 35.5647 180.876 36.0804 179.12 36.0804C174.375 36.0804 172.258 30.9619 172.258 26.9626C172.258 23.9444 173.64 19.6182 177.327 19.6182Z" fill="#00447C"/>
<path fill-rule="evenodd" clip-rule="evenodd" d="M218.574 21.7058L212.82 21.4291C213.468 22.4478 213.692 23.2904 213.692 24.4977C213.692 29.5156 208.997 32.2698 204.426 32.2698C203.318 32.2698 202.259 32.0811 201.201 31.8925L201.122 31.998C200.722 32.5338 200.229 33.1933 200.229 33.8418C200.229 35.8049 203.246 35.6874 206.782 35.5498C211.785 35.3549 217.826 35.1197 217.826 40.6832C217.826 47.4744 207.502 50.6813 201.935 50.6813C198.946 50.6813 193.965 49.562 193.965 45.6508C193.965 42.7709 197.875 40.9473 200.229 40.0167V39.9287C198.299 39.6017 195.21 38.4824 195.21 36.0678C195.21 34.917 196.902 33.7599 198.446 32.7043C199.078 32.2716 199.686 31.8561 200.142 31.4649C197.427 30.4462 195.26 28.258 195.26 25.2271C195.26 20.0583 200.242 17.6437 204.8 17.6437C207.017 17.6437 209.171 18.109 211.114 19.1277H218.574V21.7058ZM202.222 39.9915C200.79 40.6832 199.407 42.1798 199.407 43.8021C199.407 46.921 203.642 48.0403 206.082 48.0403C208.984 48.0403 213.505 46.921 213.505 43.3368C213.505 40.2179 210.927 39.8029 208.349 39.8029L202.222 39.9915ZM204.8 30.7858C201.811 30.7858 200.702 26.7866 200.702 24.4097C200.702 22.4101 201.537 19.1528 204.102 19.1528C207.191 19.1528 208.249 23.1143 208.249 25.529C208.249 27.6669 207.477 30.7858 204.8 30.7858Z" fill="#00447C"/>
<path fill-rule="evenodd" clip-rule="evenodd" d="M232.572 35.4767C226.993 35.4767 224.141 30.6852 224.278 25.617V25.6044H237.915C237.728 20.6368 234.914 17.6563 229.758 17.6563C223.817 17.6563 219.022 23.1018 219.022 28.8239C219.022 34.873 223.444 39.5262 229.247 39.5262C233.307 39.5262 236.533 36.7846 238.737 33.6657L237.591 32.8231C236.171 34.458 234.789 35.4767 232.572 35.4767ZM228.786 19.3415C231.227 19.3415 231.962 21.8567 232.199 23.806L224.552 24.045C225.013 21.9447 226.208 19.3415 228.786 19.3415Z" fill="#00447C"/>
<path d="M251.278 28.5472C251.278 34.873 251.004 37.011 258.414 37.5769V38.8848H239.11V37.5769C244.59 36.6463 245.188 36.9733 245.188 28.5472V16.1723C245.188 9.19252 244.777 9.33086 239.11 8.53856V7.23064H253.432C257.766 7.23064 267.02 7.23064 267.02 15.5058C267.02 22.5736 259.883 24.5354 254.254 25.6421L253.93 24.2965C257.754 23.2778 260.108 20.8506 260.108 16.7131C260.108 11.3682 256.371 9.07934 251.265 9.07934V28.5472H251.278Z" fill="#00447C"/>
<path fill-rule="evenodd" clip-rule="evenodd" d="M279.785 17.6563C273.197 17.6563 267.53 21.9825 267.53 28.8239C267.53 35.615 273.334 39.5262 279.685 39.5262C286.136 39.5262 291.666 35.2 291.666 28.4969C291.666 21.9322 286.099 17.6563 279.785 17.6563ZM279.411 19.3289C284.019 19.3289 285.588 25.1894 285.588 29.1006C285.588 32.4584 284.393 37.8536 280.059 37.841C275.401 37.841 273.608 32.0308 273.608 28.258C273.608 24.7241 275.314 19.3289 279.411 19.3289Z" fill="#00447C"/>
<path fill-rule="evenodd" clip-rule="evenodd" d="M295.389 9.79618C295.389 11.6197 296.909 13.1037 298.752 13.1037C300.595 13.1037 302.115 11.6197 302.115 9.79618C302.115 7.98521 300.595 6.45092 298.752 6.45092C296.909 6.45092 295.389 7.98521 295.389 9.79618ZM295.922 23.1936C296.211 23.6617 296.211 24.3085 296.211 25.8434V33.0118C296.211 36.684 296.211 36.8223 292.712 37.753V38.8723H305.191V37.753C303.425 37.2463 302.538 37.0134 302.092 36.4383C301.641 35.8572 301.641 34.9268 301.641 33.0118V23.6677L301.828 18.0839L300.907 17.3796L293.447 20.5488V21.2908C294.909 22.3681 295.598 22.6683 295.922 23.1936Z" fill="#00447C"/>
<path d="M315.689 33.0118C315.689 36.8223 315.689 36.7343 318.915 37.753V38.8723H306.748V37.753C310.247 36.8223 310.247 36.684 310.247 33.0118V25.8434C310.247 22.5861 310.247 23.3281 307.482 21.2908V20.5488L314.942 17.3796L315.864 18.0839L315.353 21.0141C318.118 19.1528 320.833 17.6689 323.735 17.6689C325.528 17.6689 327.508 18.6498 328.567 20.1338C329.862 21.9447 329.762 24.3719 329.762 26.5099V33.0243C329.762 36.6966 329.762 36.8349 333.262 37.7656V38.8848H321.094V37.753C324.32 36.7343 324.32 36.8223 324.32 33.0118V27.2896C324.32 23.6174 323.486 20.8255 319.114 20.8255C317.869 20.8255 316.723 21.2908 315.665 21.8944V33.0118H315.689Z" fill="#00447C"/>
<path d="M349.676 37.8033C348.343 38.2686 346.911 38.6836 345.479 39.0106C344.009 39.3376 342.577 39.5262 341.108 39.5262C336.587 39.5262 336.587 36.181 336.587 32.5464V21.1902H333.038V20.0709L341.145 13.0031H342.017V18.6372H349.664V21.1902H342.017V29.327C342.017 34.5838 341.88 36.5331 347.87 36.5331H349.664V37.8033H349.676Z" fill="#00447C"/>
<path d="M226.374 53.0434C226.374 52.895 226.498 52.759 226.66 52.759H232.739C232.9 52.759 233.024 52.895 233.024 53.0434V53.8841C233.024 54.0325 232.9 54.1685 232.739 54.1685H227.928V57.6674H231.993C232.142 57.6674 232.279 57.8034 232.279 57.9517V58.7801C232.279 58.9284 232.142 59.0644 231.993 59.0644H227.928V63.0455C227.928 63.1939 227.791 63.3299 227.642 63.3299H226.647C226.486 63.3299 226.361 63.1939 226.361 63.0455V53.0434H226.374Z" fill="#0989BE"/>
<path d="M238.009 53.0434C238.009 52.895 238.146 52.759 238.295 52.759H239.302C239.451 52.759 239.588 52.895 239.588 53.0434V63.0579C239.588 63.2062 239.451 63.3422 239.302 63.3422H238.295C238.146 63.3422 238.009 63.2062 238.009 63.0579V53.0434Z" fill="#0989BE"/>
<path d="M245.58 52.8827C245.58 52.7343 245.717 52.6107 245.866 52.6107H246.251L252.852 60.2019H252.865V53.0434C252.865 52.895 252.989 52.759 253.151 52.759H254.12C254.27 52.759 254.406 52.895 254.406 53.0434V63.2186C254.406 63.3669 254.27 63.4906 254.12 63.4906H253.723L247.122 55.6892H247.109V63.0579C247.109 63.2062 246.985 63.3422 246.823 63.3422H245.866C245.717 63.3422 245.58 63.2062 245.58 63.0579V52.8827Z" fill="#0989BE"/>
<path fill-rule="evenodd" clip-rule="evenodd" d="M263.643 52.7714L258.968 62.9466C258.881 63.1444 259.006 63.3422 259.229 63.3422H260.187C260.373 63.3422 260.485 63.2309 260.535 63.1197C260.671 62.8115 260.809 62.5081 260.946 62.2063C261.123 61.8179 261.299 61.4322 261.467 61.0426H266.44L267.384 63.1197C267.446 63.2557 267.546 63.3422 267.732 63.3422H268.69C268.926 63.3422 269.038 63.1444 268.951 62.9466L264.314 52.7714C264.264 52.6849 264.127 52.6107 264.053 52.6107H263.904C263.829 52.6107 263.692 52.6849 263.643 52.7714ZM263.991 55.6027L265.855 59.7444H262.064L263.916 55.6027H263.991Z" fill="#0989BE"/>
<path d="M273.5 52.8827C273.5 52.7343 273.637 52.6107 273.786 52.6107H274.172L280.773 60.2019H280.785V53.0434C280.785 52.895 280.91 52.759 281.071 52.759H282.041C282.19 52.759 282.327 52.895 282.327 53.0434V63.2186C282.327 63.3669 282.19 63.4906 282.041 63.4906H281.643L275.042 55.6892H275.03V63.0579C275.03 63.2062 274.905 63.3422 274.744 63.3422H273.786C273.637 63.3422 273.5 63.2062 273.5 63.0579V52.8827Z" fill="#0989BE"/>
<path d="M293.042 52.6107C294.584 52.6107 295.69 53.1299 296.722 54.0201C296.859 54.1438 296.859 54.3168 296.734 54.4405L296.063 55.1205C295.951 55.2565 295.815 55.2565 295.678 55.1205C294.957 54.5023 293.987 54.1067 293.042 54.1067C290.867 54.1067 289.226 55.9241 289.226 58.0383C289.226 60.1524 290.879 61.9575 293.055 61.9575C294.161 61.9575 294.944 61.5248 295.665 60.9561C295.802 60.8448 295.939 60.8695 296.026 60.9437L296.722 61.6237C296.846 61.735 296.809 61.9204 296.71 62.0317C295.678 63.0331 294.373 63.5029 293.018 63.5029C289.972 63.5029 287.523 61.1044 287.523 58.0754C287.548 55.0463 289.997 52.6107 293.042 52.6107Z" fill="#0989BE"/>
<path d="M301.943 53.0434C301.943 52.895 302.08 52.759 302.229 52.759H303.236C303.385 52.759 303.522 52.895 303.522 53.0434V63.0579C303.522 63.2062 303.385 63.3422 303.236 63.3422H302.229C302.08 63.3422 301.943 63.2062 301.943 63.0579V53.0434Z" fill="#0989BE"/>
<path fill-rule="evenodd" clip-rule="evenodd" d="M312.758 52.7714L308.084 62.9466C307.997 63.1444 308.109 63.3422 308.345 63.3422H309.302C309.489 63.3422 309.601 63.2309 309.65 63.1197C309.786 62.8115 309.925 62.5081 310.062 62.2063C310.239 61.8179 310.415 61.4322 310.583 61.0426H315.555L316.5 63.1197C316.562 63.2557 316.662 63.3422 316.848 63.3422H317.805C318.041 63.3422 318.153 63.1444 318.066 62.9466L313.43 52.7714C313.38 52.6849 313.243 52.6107 313.168 52.6107H313.019C312.945 52.6107 312.808 52.6849 312.758 52.7714ZM313.106 55.6027L314.971 59.7444H311.179L313.032 55.6027H313.106Z" fill="#0989BE"/>
<path d="M322.616 53.0434C322.616 52.895 322.741 52.759 322.902 52.759H323.909C324.058 52.759 324.195 52.895 324.195 53.0434V61.9328H328.322C328.484 61.9328 328.608 62.0688 328.608 62.2171V63.0455C328.608 63.1939 328.484 63.3299 328.322 63.3299H322.902C322.741 63.3299 322.616 63.1939 322.616 63.0455V53.0434Z" fill="#0989BE"/>
<path d="M217.486 58.1619H23.2661" stroke="#0989BE" stroke-width="1.0567" stroke-linecap="round"/>
</svg>
